<?xml version="1.0" encoding="utf-8"?>
<!-- Generator: Adobe Illustrator 19.0.0, SVG Export Plug-In . SVG Version: 6.00 Build 0)  -->
<svg version="1.1" id="Layer_1" xmlns="http://www.w3.org/2000/svg" xmlns:xlink="http://www.w3.org/1999/xlink" x="0px" y="0px"
	 viewBox="0 0 86.9 86.9" style="enable-background:new 0 0 86.9 86.9;" xml:space="preserve">
<style type="text/css">
	.st0{fill:#FFFFFF;}
	.st1{fill:#99D4BB;}
</style>
<g>
	<circle class="st0" cx="43.5" cy="43.5" r="43.5"/>
	<g>
		<g>
			<path class="st1" d="M56.1,54.2H29.2l-2.5-2.5V33.8l2.5-2.5h33.2l2.4,3.3l-6.3,17.8L56.1,54.2z M31.7,49.2h22.6l4.6-12.8H31.7
				V49.2z"/>
		</g>
		<g>
			<polygon class="st1" points="31.7,33.8 26.7,33.8 26.7,28.9 20.5,28.9 20.5,23.9 29.2,23.9 31.7,26.4 			"/>
		</g>
		<g>
			<circle class="st1" cx="31.1" cy="60.8" r="3.8"/>
		</g>
		<g>
			<circle class="st1" cx="54.3" cy="60.8" r="3.8"/>
		</g>
	</g>
</g>
<g>
	<circle class="st0" cx="43.5" cy="43.5" r="43.5"/>
	<g>
		<g>
			<path class="st1" d="M56.1,54.2H29.2l-2.5-2.5V33.8l2.5-2.5h33.2l2.4,3.3l-6.3,17.8L56.1,54.2z M31.7,49.2h22.6l4.6-12.8H31.7
				V49.2z"/>
		</g>
		<g>
			<polygon class="st1" points="31.7,33.8 26.7,33.8 26.7,28.9 20.5,28.9 20.5,23.9 29.2,23.9 31.7,26.4 			"/>
		</g>
		<g>
			<circle class="st1" cx="31.1" cy="60.8" r="3.8"/>
		</g>
		<g>
			<circle class="st1" cx="54.3" cy="60.8" r="3.8"/>
		</g>
	</g>
</g>
<g>
	<circle class="st0" cx="43.5" cy="43.5" r="43.5"/>
	<g>
		<g>
			<path class="st1" d="M56.1,54.2H29.2l-2.5-2.5V33.8l2.5-2.5h33.2l2.4,3.3l-6.3,17.8L56.1,54.2z M31.7,49.2h22.6l4.6-12.8H31.7
				V49.2z"/>
		</g>
		<g>
			<polygon class="st1" points="31.7,33.8 26.7,33.8 26.7,28.9 20.5,28.9 20.5,23.9 29.2,23.9 31.7,26.4 			"/>
		</g>
		<g>
			<circle class="st1" cx="31.1" cy="60.8" r="3.8"/>
		</g>
		<g>
			<circle class="st1" cx="54.3" cy="60.8" r="3.8"/>
		</g>
	</g>
</g>
<g>
	<circle class="st0" cx="43.5" cy="43.5" r="43.5"/>
	<g>
		<g>
			<path class="st1" d="M56.1,54.2H29.2l-2.5-2.5V33.8l2.5-2.5h33.2l2.4,3.3l-6.3,17.8L56.1,54.2z M31.7,49.2h22.6l4.6-12.8H31.7
				V49.2z"/>
		</g>
		<g>
			<polygon class="st1" points="31.7,33.8 26.7,33.8 26.7,28.9 20.5,28.9 20.5,23.9 29.2,23.9 31.7,26.4 			"/>
		</g>
		<g>
			<circle class="st1" cx="31.1" cy="60.8" r="3.8"/>
		</g>
		<g>
			<circle class="st1" cx="54.3" cy="60.8" r="3.8"/>
		</g>
	</g>
</g>
<g>
	<circle class="st0" cx="43.5" cy="43.5" r="43.5"/>
	<g>
		<g>
			<path class="st1" d="M56.1,54.2H29.2l-2.5-2.5V33.8l2.5-2.5h33.2l2.4,3.3l-6.3,17.8L56.1,54.2z M31.7,49.2h22.6l4.6-12.8H31.7
				V49.2z"/>
		</g>
		<g>
			<polygon class="st1" points="31.7,33.8 26.7,33.8 26.7,28.9 20.5,28.9 20.5,23.9 29.2,23.9 31.7,26.4 			"/>
		</g>
		<g>
			<circle class="st1" cx="31.1" cy="60.8" r="3.8"/>
		</g>
		<g>
			<circle class="st1" cx="54.3" cy="60.8" r="3.8"/>
		</g>
	</g>
</g>
<g>
	<circle class="st0" cx="43.5" cy="43.5" r="43.5"/>
	<g>
		<g>
			<path class="st1" d="M56.1,54.2H29.2l-2.5-2.5V33.8l2.5-2.5h33.2l2.4,3.3l-6.3,17.8L56.1,54.2z M31.7,49.2h22.6l4.6-12.8H31.7
				V49.2z"/>
		</g>
		<g>
			<polygon class="st1" points="31.7,33.8 26.7,33.8 26.7,28.9 20.5,28.9 20.5,23.9 29.2,23.9 31.7,26.4 			"/>
		</g>
		<g>
			<circle class="st1" cx="31.1" cy="60.8" r="3.8"/>
		</g>
		<g>
			<circle class="st1" cx="54.3" cy="60.8" r="3.8"/>
		</g>
	</g>
</g>
<g>
	<circle class="st0" cx="43.5" cy="43.5" r="43.5"/>
	<g>
		<g>
			<path class="st1" d="M56.1,54.2H29.2l-2.5-2.5V33.8l2.5-2.5h33.2l2.4,3.3l-6.3,17.8L56.1,54.2z M31.7,49.2h22.6l4.6-12.8H31.7
				V49.2z"/>
		</g>
		<g>
			<polygon class="st1" points="31.7,33.8 26.7,33.8 26.7,28.9 20.5,28.9 20.5,23.9 29.2,23.9 31.7,26.4 			"/>
		</g>
		<g>
			<circle class="st1" cx="31.1" cy="60.8" r="3.8"/>
		</g>
		<g>
			<circle class="st1" cx="54.3" cy="60.8" r="3.8"/>
		</g>
	</g>
</g>
<g>
	<circle class="st0" cx="43.5" cy="43.5" r="43.5"/>
	<g>
		<g>
			<path class="st1" d="M56.1,54.2H29.2l-2.5-2.5V33.8l2.5-2.5h33.2l2.4,3.3l-6.3,17.8L56.1,54.2z M31.7,49.2h22.6l4.6-12.8H31.7
				V49.2z"/>
		</g>
		<g>
			<polygon class="st1" points="31.7,33.8 26.7,33.8 26.7,28.9 20.5,28.9 20.5,23.9 29.2,23.9 31.7,26.4 			"/>
		</g>
		<g>
			<circle class="st1" cx="31.1" cy="60.8" r="3.8"/>
		</g>
		<g>
			<circle class="st1" cx="54.3" cy="60.8" r="3.8"/>
		</g>
	</g>
</g>
</svg>
