<?xml version="1.0" encoding="utf-8"?>
<!-- Generator: Adobe Illustrator 19.0.0, SVG Export Plug-In . SVG Version: 6.00 Build 0)  -->
<svg version="1.1" id="Layer_1" xmlns="http://www.w3.org/2000/svg" xmlns:xlink="http://www.w3.org/1999/xlink" x="0px" y="0px"
	 viewBox="0 0 1350 843.2" style="enable-background:new 0 0 1350 843.2;" xml:space="preserve">
<style type="text/css">
	.st0{opacity:0.5;clip-path:url(#XMLID_28_);}
	.st1{enable-background:new    ;}
	.st2{clip-path:url(#XMLID_29_);}
	.st3{fill:#76CFE5;}
	.st4{clip-path:url(#XMLID_28_);}
	.st5{opacity:0.5;fill:#99D3BB;}
	.st6{fill:#17ADC3;}
</style>
<g id="XMLID_173_">
	<defs>
		<rect id="XMLID_174_" x="0" y="0" width="1350" height="843.2"/>
	</defs>
	<clipPath id="XMLID_28_">
		<use xlink:href="#XMLID_174_"  style="overflow:visible;"/>
	</clipPath>
	<g id="XMLID_193_" class="st0">
		<g id="XMLID_266_">
			<g id="XMLID_269_" class="st1">
				<defs>
					<rect id="XMLID_317_" x="464.6" y="111.6" class="st1" width="1235.4" height="1128.4"/>
				</defs>
				<clipPath id="XMLID_29_">
					<use xlink:href="#XMLID_317_"  style="overflow:visible;"/>
				</clipPath>
				<g id="XMLID_271_" class="st2">
					<g id="XMLID_272_">
						<g id="XMLID_273_">
							<g id="XMLID_274_">
								<path id="XMLID_314_" class="st3" d="M1520.4,413.7c-67.5,0-122.4-54.9-122.4-122.4s54.9-122.4,122.4-122.4
									c67.5,0,122.4,54.9,122.4,122.4S1587.8,413.7,1520.4,413.7 M1520.4,159.9c-72.5,0-131.4,59-131.4,131.4
									c0,22.7,5.8,44,15.9,62.7l2.4-2.4l6.4,6.4l-4,4c23.4,36.5,64.3,60.7,110.7,60.7c72.5,0,131.4-59,131.4-131.4
									S1592.8,159.9,1520.4,159.9"/>
								<path id="XMLID_313_" class="st3" d="M1520.4,111.6c-54.7,0-107,25.4-141,68.3h-64.6l-144.7,144.7v54.7l-42.2,42.2
									l-16.7-16.7h-88L963,465.2v85.3l13.6,13.6L944,596.8h-65v46H464.6v597.2H874v-203.9h242.6V869.3h32.4V732.1l44.4-44.4
									c-6.9-3.4-12.6-8.7-16.4-15.3l-50.4,50.4v124.1h-32.3v166.9H941v11.2h-9v-11.2h-80.4v203.9H685.6v6.2h-9v-6.2H487v-184.6h-5
									v-9h5V665.2h201.4h9h199.4v-46h9h42.4v-10.9h9v6.8l50.9-50.9l-22.9-22.9v-66.8l47.2-47.2h69.4l25.9,25.9l0,0l-18.1-18.1
									l6.4-6.4l18.1,18.1l58.1-58.1v-54.7l25.1-25.1l-4.8-4.8l6.4-6.4l4.8,4.8L1324,202.3h66.4l3.4-4.5
									c29.7-39.9,77-63.8,126.5-63.8c86.7,0,157.3,70.6,157.3,157.3c0,86.7-70.6,157.3-157.3,157.3c-29.6,0-58.4-8.3-83.4-23.9
									l-7.6-4.7l-199.9,199.9c6.6,3.8,11.9,9.5,15.3,16.4l188-188c26.7,14.9,56.8,22.8,87.6,22.8c99.1,0,179.7-80.6,179.7-179.7
									S1619.4,111.6,1520.4,111.6"/>
								<path id="XMLID_286_" class="st3" d="M1210.2,682.5c-16.2,0-29.4-13.2-29.4-29.4s13.2-29.4,29.4-29.4s29.4,13.2,29.4,29.4
									S1226.4,682.5,1210.2,682.5 M1210.2,614.6c-21.2,0-38.4,17.2-38.4,38.4c0,7,1.9,13.6,5.2,19.3c3.8,6.6,9.5,11.9,16.4,15.3
									c5.1,2.5,10.8,3.9,16.8,3.9c21.2,0,38.4-17.2,38.4-38.4c0-6-1.4-11.7-3.9-16.8c-3.4-6.9-8.7-12.6-15.3-16.4
									C1223.8,616.5,1217.2,614.6,1210.2,614.6"/>
								<polyline id="XMLID_285_" class="st3" points="905.8,619.2 896.8,619.2 896.8,665.2 896.8,704.7 1014.6,704.7 1014.6,695.7 
									957.3,695.7 957.3,700.2 948.3,700.2 948.3,695.7 905.8,695.7 905.8,619.2 								"/>
								<polyline id="XMLID_284_" class="st3" points="957.3,608.3 948.3,608.3 948.3,619.2 948.3,695.7 948.3,700.2 957.3,700.2 
									957.3,695.7 957.3,615.1 957.3,608.3 								"/>
								<polyline id="XMLID_283_" class="st3" points="1116.3,428.7 1109.9,435.1 1128,453.2 1200.7,525.9 1207.1,519.5 
									1134.4,446.8 1116.3,428.7 								"/>
								<polyline id="XMLID_282_" class="st3" points="1407.2,351.6 1404.9,354 1312.4,446.5 1315.6,449.7 1309.2,456.1 1306,452.9 
									1261,497.9 1267.4,504.3 1409.6,362 1413.6,358 1407.2,351.6 								"/>
								<polyline id="XMLID_281_" class="st3" points="1219.2,297.6 1212.8,304 1217.6,308.8 1241.2,332.4 1241.2,388 1306,452.9 
									1309.2,456.1 1315.6,449.7 1312.4,446.5 1250.2,384.3 1250.2,328.6 1224,302.4 1219.2,297.6 								"/>
								<polyline id="XMLID_280_" class="st3" points="941,862.1 932,862.1 932,1013.7 932,1024.9 941,1024.9 941,1013.7 941,862.1 
																	"/>
								<polyline id="XMLID_279_" class="st3" points="900.9,786.5 891.8,786.5 891.8,813.7 777.8,813.7 777.8,822.8 900.9,822.8 
									900.9,786.5 								"/>
								<polyline id="XMLID_277_" class="st3" points="697.4,665.2 688.4,665.2 688.4,824.3 697.4,824.3 697.4,665.2 								"/>
								<polyline id="XMLID_276_" class="st3" points="657.3,824.3 648.3,824.3 648.3,857.6 487,857.6 487,866.6 657.3,866.6 
									657.3,824.3 								"/>
								<polyline id="XMLID_275_" class="st3" points="653.9,1024 487,1024 482,1024 482,1033.1 487,1033.1 644.8,1033.1 
									644.8,1076 676.6,1076 676.6,1217.7 676.6,1223.9 685.6,1223.9 685.6,1217.7 685.6,1066.9 653.9,1066.9 653.9,1024 								
									"/>
							</g>
						</g>
					</g>
				</g>
			</g>
		</g>
	</g>
	<g id="XMLID_187_" class="st4">
		<ellipse id="XMLID_192_" class="st5" cx="1060.1" cy="514.2" rx="45.4" ry="16.9"/>
		<g id="XMLID_188_">
			<g id="XMLID_189_">
				<g id="XMLID_190_">
					<path id="XMLID_191_" class="st6" d="M1108.8,437.2c0-11-8.4-19.5-19.2-19.5c-6,0-11.8,2.9-15.3,7.6c-3.4-4.7-9.2-7.6-15.3-7.6
						c-5.7,0-11.1,2.5-14.7,6.8c-3.7-4.3-9.1-6.8-14.8-6.8h-0.4v9.3h0.4c5.7,0,10.3,4.6,10.3,10.3v21.6h9.3v-21.6
						c0-5.7,4.6-10.3,10.3-10.3s10.3,4.6,10.3,10.3v21.6h9.3v-21.6c0-5.7,4.6-10.3,10.3-10.3s10.3,4.6,10.3,10.3v20.9h0
						c-0.2,13.1-8.4,16.7-15.6,19.8c-1.1,0.5-2.1,0.9-3.1,1.4c-0.5,0.2-1,0.5-1.5,0.7c-5.1,2.4-13.9,6.6-19.3,15.2
						c-5.4-8.6-14.2-12.8-19.3-15.2c-0.5-0.3-1-0.5-1.5-0.7c-1-0.5-2-0.9-3.1-1.4c-7.3-3.2-15.6-6.8-15.6-20.3v-48
						c0-9.3,7.6-16.9,16.9-16.9h45.1c9.3,0,16.9,7.6,16.9,16.9h9.2c0-14.4-11.7-26.2-26.2-26.2h-45.1c-14.4,0-26.2,11.7-26.2,26.2
						v48c0,19.6,13.8,25.6,21.2,28.8c1,0.4,1.9,0.8,2.7,1.2c0.5,0.2,1,0.5,1.6,0.8c7.4,3.5,18.6,8.8,18.6,23.9h9.2
						c0-15.1,11.2-20.4,18.6-23.9c0.6-0.3,1.1-0.5,1.6-0.8c0.8-0.4,1.7-0.8,2.7-1.2c7.3-3.2,20.9-9.1,21.2-28.3h0V437.2z"/>
				</g>
			</g>
		</g>
	</g>
	<g id="XMLID_181_" class="st4">
		<ellipse id="XMLID_186_" class="st5" cx="572.1" cy="756.2" rx="45.4" ry="16.9"/>
		<g id="XMLID_182_">
			<g id="XMLID_183_">
				<g id="XMLID_184_">
					<path id="XMLID_185_" class="st6" d="M620.8,679.2c0-11-8.4-19.5-19.2-19.5c-6,0-11.8,2.9-15.3,7.6c-3.4-4.7-9.2-7.6-15.3-7.6
						c-5.7,0-11.1,2.5-14.7,6.8c-3.7-4.3-9.1-6.8-14.8-6.8h-0.4v9.3h0.4c5.7,0,10.3,4.6,10.3,10.3v21.6h9.3v-21.6
						c0-5.7,4.6-10.3,10.3-10.3c5.7,0,10.3,4.6,10.3,10.3v21.6h9.3v-21.6c0-5.7,4.6-10.3,10.3-10.3c5.7,0,10.3,4.6,10.3,10.3v20.9h0
						c-0.2,13.1-8.4,16.7-15.6,19.8c-1.1,0.5-2.1,0.9-3.1,1.4c-0.5,0.2-1,0.5-1.5,0.7c-5.1,2.4-13.9,6.6-19.3,15.2
						c-5.4-8.6-14.2-12.8-19.3-15.2c-0.5-0.3-1-0.5-1.5-0.7c-1-0.5-2-0.9-3.1-1.4c-7.3-3.2-15.6-6.8-15.6-20.3v-48
						c0-9.3,7.6-16.9,16.9-16.9h45.1c9.3,0,16.9,7.6,16.9,16.9h9.2c0-14.4-11.7-26.2-26.2-26.2h-45.1c-14.4,0-26.2,11.7-26.2,26.2
						v48c0,19.6,13.8,25.6,21.2,28.8c1,0.4,1.9,0.8,2.7,1.2c0.5,0.2,1,0.5,1.6,0.8c7.4,3.5,18.6,8.8,18.6,23.9h9.2
						c0-15.1,11.2-20.4,18.6-23.9c0.6-0.3,1.1-0.5,1.6-0.8c0.8-0.4,1.7-0.8,2.7-1.2c7.3-3.2,20.9-9.1,21.2-28.3h0V679.2z"/>
				</g>
			</g>
		</g>
	</g>
	<g id="XMLID_175_" class="st4">
		<ellipse id="XMLID_180_" class="st5" cx="1017.1" cy="907.2" rx="45.4" ry="16.9"/>
		<g id="XMLID_176_">
			<g id="XMLID_177_">
				<g id="XMLID_178_">
					<path id="XMLID_179_" class="st6" d="M1065.8,830.2c0-11-8.4-19.5-19.2-19.5c-6,0-11.8,2.9-15.3,7.6c-3.4-4.7-9.2-7.6-15.3-7.6
						c-5.7,0-11.1,2.5-14.7,6.8c-3.7-4.3-9.1-6.8-14.8-6.8h-0.4v9.3h0.4c5.7,0,10.3,4.6,10.3,10.3v21.6h9.3v-21.6
						c0-5.7,4.6-10.3,10.3-10.3c5.7,0,10.3,4.6,10.3,10.3v21.6h9.3v-21.6c0-5.7,4.6-10.3,10.3-10.3s10.3,4.6,10.3,10.3v20.9h0
						c-0.2,13.1-8.4,16.7-15.6,19.8c-1.1,0.5-2.1,0.9-3.1,1.4c-0.5,0.2-1,0.5-1.5,0.7c-5.1,2.4-13.9,6.6-19.3,15.2
						c-5.4-8.6-14.2-12.8-19.3-15.2c-0.5-0.3-1-0.5-1.5-0.7c-1-0.5-2-0.9-3.1-1.4c-7.3-3.2-15.6-6.8-15.6-20.3v-48
						c0-9.3,7.6-16.9,16.9-16.9h45.1c9.3,0,16.9,7.6,16.9,16.9h9.2c0-14.4-11.7-26.2-26.2-26.2h-45.1c-14.4,0-26.2,11.7-26.2,26.2
						v48c0,19.6,13.8,25.6,21.2,28.8c1,0.4,1.9,0.8,2.7,1.2c0.5,0.2,1,0.5,1.6,0.8c7.4,3.5,18.6,8.8,18.6,23.9h9.2
						c0-15.1,11.2-20.4,18.6-23.9c0.6-0.3,1.1-0.5,1.6-0.8c0.8-0.4,1.7-0.8,2.7-1.2c7.3-3.2,20.9-9.1,21.2-28.3h0V830.2z"/>
				</g>
			</g>
		</g>
	</g>
</g>
</svg>
