<?xml version="1.0" encoding="utf-8"?>
<!-- Generator: Adobe Illustrator 19.0.0, SVG Export Plug-In . SVG Version: 6.00 Build 0)  -->
<svg version="1.1" id="Layer_1" xmlns="http://www.w3.org/2000/svg" xmlns:xlink="http://www.w3.org/1999/xlink" x="0px" y="0px"
	 viewBox="0 0 43.3 31.1" style="enable-background:new 0 0 43.3 31.1;" xml:space="preserve">
<style type="text/css">
	.st0{fill:#11ADC3;}
</style>
<g>
	<g id="XMLID_99_">
		<g id="XMLID_100_">
			<g id="XMLID_105_">
				<path id="XMLID_106_" class="st0" d="M23.6,31.1h-15c-4.7,0-8.6-3.9-8.6-8.6V8.6C0,3.9,3.9,0,8.6,0h15c4.7,0,8.6,3.9,8.6,8.6
					v13.9C32.2,27.3,28.3,31.1,23.6,31.1z M8.6,5C6.6,5,5,6.6,5,8.6v13.9c0,2,1.6,3.6,3.6,3.6h15c2,0,3.6-1.6,3.6-3.6V8.6
					c0-2-1.6-3.6-3.6-3.6H8.6z"/>
			</g>
			<g id="XMLID_101_">
				<path id="XMLID_102_" class="st0" d="M39,28.4L27.9,17.3v-3.5L39,2.7l4.3,1.8v22.1L39,28.4z M33.2,15.6l5,5V10.5L33.2,15.6z"/>
			</g>
		</g>
	</g>
</g>
</svg>
