<?xml version="1.0" encoding="utf-8"?>
<!-- Generator: Adobe Illustrator 19.0.0, SVG Export Plug-In . SVG Version: 6.00 Build 0)  -->
<svg version="1.1" id="Layer_1" xmlns="http://www.w3.org/2000/svg" xmlns:xlink="http://www.w3.org/1999/xlink" x="0px" y="0px"
	 viewBox="0 0 32 32" style="enable-background:new 0 0 32 32;" xml:space="preserve">
<style type="text/css">
	.st0{fill:#11ADC3;}
</style>
<path id="XMLID_280_" class="st0" d="M32,29.9c0,1.2-0.9,2.1-2.1,2.1H2.1C0.9,32,0,31.1,0,29.9V2.1C0,0.9,0.9,0,2.1,0h27.8
	C31.1,0,32,0.9,32,2.1V29.9z M18.7,8.7h3.6V4.2h-3.6c-3,0-5.4,2.6-5.4,5.9v2.3H9.7v4.5h3.6v10.9h4.5V16.9h4.5v-4.5h-4.5v-2.3
	C17.8,9.3,18.3,8.7,18.7,8.7z"/>
</svg>
