<?xml version="1.0" encoding="utf-8"?>
<!-- Generator: Adobe Illustrator 19.0.0, SVG Export Plug-In . SVG Version: 6.00 Build 0)  -->
<svg version="1.1" id="Layer_1" xmlns="http://www.w3.org/2000/svg" xmlns:xlink="http://www.w3.org/1999/xlink" x="0px" y="0px"
	 viewBox="0 0 32 32" style="enable-background:new 0 0 32 32;" xml:space="preserve">
<style type="text/css">
	.st0{fill:#11ADC3;}
</style>
<path id="XMLID_280_" class="st0" d="M29.6,0H2.4C1.1,0,0,1,0,2.3v27.4C0,30.9,1.1,32,2.4,32h27.3c1.3,0,2.4-1,2.4-2.3V2.3
	C32,1,30.9,0,29.6,0z M4.7,12h4.7v15.3H4.7V12z M7.1,4.4c1.5,0,2.7,1.2,2.7,2.7c0,1.5-1.2,2.8-2.7,2.8c-1.5,0-2.7-1.2-2.7-2.8
	C4.4,5.6,5.6,4.4,7.1,4.4 M12.5,12H17v2.1h0.1c0.6-1.2,2.2-2.5,4.5-2.5c4.8,0,5.7,3.2,5.7,7.3v8.4h-4.7v-7.4c0-1.8,0-4-2.5-4
	c-2.5,0-2.8,1.9-2.8,3.9v7.6h-4.7V12z"/>
</svg>
