<?xml version="1.0" encoding="utf-8"?>
<!-- Generator: Adobe Illustrator 19.0.0, SVG Export Plug-In . SVG Version: 6.00 Build 0)  -->
<svg version="1.1" id="Layer_1" xmlns="http://www.w3.org/2000/svg" xmlns:xlink="http://www.w3.org/1999/xlink" x="0px" y="0px"
	 viewBox="0 0 42.9 40.7" style="enable-background:new 0 0 42.9 40.7;" xml:space="preserve">
<style type="text/css">
	.st0{fill:#11ADC3;}
</style>
<g>
	<g id="XMLID_17_">
		<path id="XMLID_18_" class="st0" d="M25.9,40.7l-8.4-8.4h-8C4.3,32.3,0,28,0,22.7V9.5C0,4.3,4.3,0,9.5,0h23.9
			c5.2,0,9.5,4.3,9.5,9.5v13.2c0,5.2-4.3,9.5-9.5,9.5h-3.5v-5.2h3.5c2.4,0,4.3-2,4.3-4.3V9.5c0-2.4-2-4.3-4.3-4.3H9.5
			c-2.4,0-4.3,2-4.3,4.3v13.2c0,2.4,2,4.3,4.3,4.3h10.1l10,10L25.9,40.7z"/>
	</g>
</g>
</svg>
