<?xml version="1.0" encoding="utf-8"?>
<!-- Generator: Adobe Illustrator 19.0.0, SVG Export Plug-In . SVG Version: 6.00 Build 0)  -->
<svg version="1.1" id="Layer_1" xmlns="http://www.w3.org/2000/svg" xmlns:xlink="http://www.w3.org/1999/xlink" x="0px" y="0px"
	 viewBox="0 0 86.9 86.9" style="enable-background:new 0 0 86.9 86.9;" xml:space="preserve">
<style type="text/css">
	.st0{fill:#FFFFFF;}
	.st1{fill:#99D4BB;}
</style>
<g>
	<circle class="st0" cx="43.5" cy="43.5" r="43.5"/>
	<g>
		<path class="st1" d="M48,68.2l-8.4-8.4h-8c-5.2,0-9.5-4.3-9.5-9.5V37c0-5.2,4.3-9.5,9.5-9.5h23.9c5.2,0,9.5,4.3,9.5,9.5v13.2
			c0,5.2-4.3,9.5-9.5,9.5h-3.5v-5.2h3.5c2.4,0,4.3-2,4.3-4.3V37c0-2.4-2-4.3-4.3-4.3H31.5c-2.4,0-4.3,2-4.3,4.3v13.2
			c0,2.4,2,4.3,4.3,4.3h10.1l10,10L48,68.2z"/>
	</g>
</g>
</svg>
