<?xml version="1.0" encoding="utf-8"?>
<!-- Generator: Adobe Illustrator 19.0.0, SVG Export Plug-In . SVG Version: 6.00 Build 0)  -->
<svg version="1.1" id="Layer_1" xmlns="http://www.w3.org/2000/svg" xmlns:xlink="http://www.w3.org/1999/xlink" x="0px" y="0px"
	 viewBox="0 0 32 32" style="enable-background:new 0 0 32 32;" xml:space="preserve">
<style type="text/css">
	.st0{fill:#11ADC3;}
</style>
<path id="XMLID_280_" class="st0" d="M32,29.9c0,1.2-0.9,2.1-2.1,2.1H2.1C0.9,32,0,31.1,0,29.9V2.1C0,0.9,0.9,0,2.1,0h27.8
	C31.1,0,32,0.9,32,2.1V29.9z M28,9.2c-0.8,0.4-1.7,0.6-2.6,0.7c0.9-0.6,1.6-1.4,2-2.5c-0.9,0.5-1.8,0.9-2.8,1.1
	c-0.8-0.9-2-1.4-3.3-1.4c-2.5,0-4.5,2-4.5,4.5c0,0.4,0,0.7,0.1,1c-3.7-0.2-7-2-9.2-4.7c-0.4,0.7-0.6,1.4-0.6,2.2
	c0,1.6,0.8,2.9,2,3.7c-0.7,0-1.4-0.2-2-0.6c0,0,0,0,0,0.1c0,2.2,1.5,4,3.6,4.4C10.2,17.9,9.8,18,9.4,18c-0.3,0-0.6,0-0.8-0.1
	c0.6,1.8,2.2,3.1,4.2,3.1c-1.5,1.2-3.5,1.9-5.6,1.9c-0.4,0-0.7,0-1.1-0.1c2,1.3,4.3,2,6.9,2c8.2,0,12.7-6.8,12.7-12.7
	c0-0.2,0-0.4,0-0.6C26.6,10.9,27.4,10.1,28,9.2z"/>
</svg>
